<svg width="18" height="23" viewBox="0 0 18 23" fill="none" xmlns="http://www.w3.org/2000/svg">
<path d="M8.96803 0.485937C7.38403 0.485937 5.91203 0.885937 4.55203 1.68594C3.22403 2.45394 2.16803 3.50194 1.38403 4.82994C0.568034 6.20594 0.160034 7.69394 0.160034 9.29394C0.160034 11.0059 0.744034 12.8219 1.91203 14.7419C2.79203 16.1979 3.96803 17.6699 5.44003 19.1579C6.24003 19.9579 7.15203 20.7899 8.17603 21.6539L8.46403 21.8939C8.51203 21.9419 8.58403 21.9859 8.68003 22.0259C8.77603 22.0659 8.87603 22.0859 8.98003 22.0859C9.08403 22.0859 9.17203 22.0739 9.24403 22.0499C9.31603 22.0259 9.39203 21.9739 9.47203 21.8939L9.76003 21.6539C10.784 20.7899 11.696 19.9579 12.496 19.1579C13.968 17.6699 15.144 16.1979 16.024 14.7419C17.192 12.8219 17.776 11.0059 17.776 9.29394C17.776 7.69394 17.368 6.20594 16.552 4.82994C15.768 3.50194 14.712 2.45394 13.384 1.68594C12.024 0.885937 10.552 0.485937 8.96803 0.485937ZM8.96803 20.1899C8.12003 19.5019 7.25603 18.7099 6.37603 17.8139C5.08003 16.4539 4.04803 15.1259 3.28003 13.8299C2.27203 12.1499 1.76803 10.6059 1.76803 9.19794C1.76803 7.88594 2.09603 6.66994 2.75203 5.54994C3.37603 4.46194 4.23203 3.60594 5.32003 2.98194C6.44003 2.32594 7.65603 1.99794 8.96803 1.99794C10.28 1.99794 11.496 2.33394 12.616 3.00594C13.704 3.64594 14.568 4.51794 15.208 5.62194C15.848 6.72594 16.168 7.91794 16.168 9.19794C16.168 10.6539 15.664 12.2219 14.656 13.9019C13.888 15.1819 12.856 16.4939 11.56 17.8379C10.712 18.7019 9.84803 19.4859 8.96803 20.1899ZM8.96803 5.47794C8.28003 5.47794 7.64803 5.64994 7.07203 5.99394C6.49603 6.33794 6.03603 6.80194 5.69203 7.38594C5.34803 7.96994 5.17603 8.60594 5.17603 9.29394C5.17603 9.98194 5.34803 10.6179 5.69203 11.2019C6.03603 11.7859 6.49603 12.2459 7.07203 12.5819C7.64803 12.9179 8.28003 13.0859 8.96803 13.0859C9.65603 13.0859 10.292 12.9139 10.876 12.5699C11.46 12.2259 11.92 11.7659 12.256 11.1899C12.592 10.6139 12.76 9.98194 12.76 9.29394C12.76 8.60594 12.592 7.96994 12.256 7.38594C11.92 6.80194 11.46 6.33794 10.876 5.99394C10.292 5.64994 9.65603 5.47794 8.96803 5.47794ZM8.96803 11.4779C8.36003 11.4779 7.84003 11.2619 7.40803 10.8299C6.97603 10.3979 6.76003 9.88594 6.76003 9.29394C6.76003 8.89394 6.86003 8.52594 7.06003 8.18994C7.26003 7.85394 7.52803 7.58594 7.86403 7.38594C8.20003 7.18594 8.56803 7.08594 8.96803 7.08594C9.36803 7.08594 9.73603 7.18594 10.072 7.38594C10.408 7.58594 10.676 7.85394 10.876 8.18994C11.076 8.52594 11.176 8.89394 11.176 9.29394C11.176 9.88594 10.96 10.3979 10.528 10.8299C10.096 11.2619 9.57603 11.4779 8.96803 11.4779Z" fill="#030712"/>
</svg>
