<svg width="18" height="17" viewBox="0 0 18 17" fill="none" xmlns="http://www.w3.org/2000/svg">
<rect x="0.130005" width="17" height="17" rx="8.5" fill="#DC2626"/>
<path d="M8.77452 12.1385C8.18977 12.1385 7.68787 11.9905 7.26884 11.6946C6.85217 11.3963 6.53139 10.9666 6.30648 10.4055C6.08394 9.84209 5.97267 9.16383 5.97267 8.37074C5.97504 7.57765 6.08749 6.90294 6.31003 6.34659C6.53494 5.78788 6.85572 5.36174 7.27239 5.06818C7.69142 4.77462 8.19213 4.62784 8.77452 4.62784C9.35691 4.62784 9.85762 4.77462 10.2767 5.06818C10.6957 5.36174 11.0165 5.78788 11.239 6.34659C11.4639 6.9053 11.5764 7.58002 11.5764 8.37074C11.5764 9.16619 11.4639 9.84564 11.239 10.4091C11.0165 10.9702 10.6957 11.3987 10.2767 11.6946C9.85998 11.9905 9.35927 12.1385 8.77452 12.1385ZM8.77452 11.027C9.22907 11.027 9.58773 10.8033 9.85051 10.3558C10.1157 9.90601 10.2482 9.24432 10.2482 8.37074C10.2482 7.79309 10.1879 7.30777 10.0671 6.91477C9.94639 6.52178 9.77594 6.22585 9.55577 6.02699C9.3356 5.82576 9.07518 5.72514 8.77452 5.72514C8.32234 5.72514 7.96486 5.95005 7.70208 6.39986C7.43929 6.8473 7.30672 7.50426 7.30435 8.37074C7.30198 8.95076 7.35998 9.43845 7.47835 9.83381C7.59909 10.2292 7.76955 10.5275 7.98972 10.7287C8.20989 10.9276 8.47149 11.027 8.77452 11.027Z" fill="#FEF2F2"/>
</svg>
